<?xml version="1.0" standalone="no"?>
<!DOCTYPE svg PUBLIC "-//W3C//DTD SVG 20010904//EN"
 "http://www.w3.org/TR/2001/REC-SVG-20010904/DTD/svg10.dtd">
<svg version="1.0" xmlns="http://www.w3.org/2000/svg"
 width="959.000000pt" height="959.000000pt" viewBox="0 0 959.000000 959.000000"
 preserveAspectRatio="xMidYMid meet">
<metadata>
Created by potrace 1.11, written by Peter Selinger 2001-2013
</metadata>
<g transform="translate(0.000000,959.000000) scale(0.100000,-0.100000)"
fill="#000000" stroke="none">
<path d="M4050 9547 c-316 -300 -605 -494 -995 -667 -338 -149 -809 -290
-1125 -336 -19 -3 -57 -9 -85 -14 -27 -5 -76 -12 -107 -15 -66 -7 -29 30 -337
-344 l-201 -244 1 -2051 c1 -2263 -3 -2118 63 -2347 114 -397 402 -857 829
-1324 169 -184 484 -494 678 -665 204 -181 240 -212 395 -341 167 -140 175
-146 339 -276 97 -77 487 -373 532 -403 12 -8 81 -58 155 -111 73 -53 238
-167 366 -253 l233 -158 122 83 c423 287 559 383 857 608 113 85 221 167 240
182 282 226 498 403 566 464 6 6 37 33 70 60 79 67 109 94 295 265 147 135
439 427 554 555 49 55 92 102 95 105 24 24 164 198 237 295 160 213 241 342
348 560 80 162 141 332 177 490 l22 100 3 2081 3 2082 -36 43 c-46 56 -66 80
-271 329 -157 190 -172 205 -208 211 -22 4 -92 15 -155 24 -769 115 -1570 457
-2015 864 -22 20 -79 71 -126 114 l-86 77 -694 0 -694 0 -45 -43z"/>
</g>
</svg>
